<svg width="207" height="435" viewBox="0 0 207 435" fill="none" xmlns="http://www.w3.org/2000/svg">
<rect x="0.800781" y="0.632812" width="204.406" height="433.915" rx="29.2863" fill="#101012"/>
<path d="M205.207 99.2498H205.374C205.775 99.2498 205.975 99.2498 206.138 99.2972C206.531 99.4114 206.838 99.7186 206.952 100.112C207 100.275 207 100.475 207 100.875V127.508C207 127.908 207 128.108 206.952 128.272C206.838 128.665 206.531 128.972 206.138 129.086C205.975 129.134 205.775 129.134 205.374 129.134H205.207V99.2498Z" fill="#E37D67"/>
<path d="M205.207 157.225H205.374C205.775 157.225 205.975 157.225 206.138 157.272C206.531 157.386 206.838 157.694 206.952 158.086C207 158.25 207 158.45 207 158.85V214.769C207 215.169 207 215.37 206.952 215.533C206.838 215.926 206.531 216.233 206.138 216.347C205.975 216.395 205.775 216.395 205.374 216.395H205.207V157.225Z" fill="#101012"/>
<rect x="4.6857" y="4.51783" width="196.636" height="426.145" rx="26.5967" fill="#101012" stroke="#363636" stroke-width="0.597679"/>
<circle cx="57.5803" cy="19.7584" r="3.88491" fill="#242426" stroke="#363636" stroke-width="0.597679"/>
<circle cx="57.5803" cy="19.7584" r="2.98839" fill="#4D4D59"/>
<path fill-rule="evenodd" clip-rule="evenodd" d="M55.7872 17.3677C55.0614 17.9129 54.5919 18.7809 54.5919 19.7586C54.5919 20.7363 55.0614 21.6043 55.7872 22.1495C56.5131 21.6043 56.9826 20.7363 56.9826 19.7586C56.9826 18.7809 56.5131 17.9129 55.7872 17.3677ZM59.3734 17.3677C58.6475 17.9129 58.1779 18.781 58.1779 19.7587C58.1779 20.7364 58.6474 21.6044 59.3732 22.1496C60.0991 21.6044 60.5687 20.7363 60.5687 19.7586C60.5687 18.781 60.0992 17.9129 59.3734 17.3677Z" fill="#61616D"/>
<circle cx="56.6837" cy="18.8621" r="0.896518" fill="#9C9CA8"/>
<rect x="91.9468" y="18.2644" width="22.1141" height="2.98839" rx="1.4942" fill="#242426" stroke="#363636" stroke-width="0.597679"/>
</svg>
