<svg width="1440" height="512" preserveAspectRatio="none" viewBox="0 0 1440 512" fill="none" xmlns="http://www.w3.org/2000/svg">
<path fill-rule="evenodd" clip-rule="evenodd" d="M0 121.234L60 153.798C120 186.362 240 251.489 360 305.762C480 360.036 600 403.454 720 338.326C840 273.199 960 99.525 1080 34.3973C1200 -30.7303 1320 12.6881 1380 34.3973L1440 56.1066V512H1380C1320 512 1200 512 1080 512C960 512 840 512 720 512C600 512 480 512 360 512C240 512 120 512 60 512H0V121.234Z" fill="#731DD8"/>
</svg>
